<svg xmlns="http://www.w3.org/2000/svg" xml:space="preserve" width="600" height="115" data-id="lg_3Pqd0h6YZSwBQwR7Ih" data-version="1" viewBox="600 50 800 20"><g data-padding="20"><g transform="translate(10 1.472)scale(.9744)"><rect width="458.757" height="81.36" x="207.002" y="-284.084" fill="none" rx="0" ry="0" transform="translate(467.68 400.7)scale(1.41)"/><path fill="#5771ff" d="M783.036 88.61h-15.2V14.66h22.9l16.92 41.54h1.92l16.72-41.54h23.3v73.95h-16.42V25.5l2.33.2-19.55 47.92h-15.8l-19.66-47.92 2.54-.2Zm109.3 1.94q-7.3 0-12.97-2.28t-9.57-6.23-5.93-9.07q-2.03-5.11-2.03-10.79v-2.33q0-5.77 2.08-10.99t6.08-9.17 9.68-6.23q5.67-2.28 12.66-2.28 7.19 0 12.81 2.28 5.63 2.28 9.58 6.23t6.08 9.17q2.12 5.22 2.12 10.99v2.33q0 5.68-2.02 10.79-2.03 5.12-5.93 9.07t-9.57 6.23q-5.68 2.28-13.07 2.28m0-13.68q4.76 0 7.9-2.02 3.14-2.03 4.81-5.68 1.67-3.64 1.67-8.1 0-4.76-1.72-8.36t-4.91-5.72q-3.19-2.13-7.75-2.13-4.46 0-7.7 2.13-3.24 2.12-4.91 5.72-1.68 3.6-1.68 8.36 0 4.46 1.63 8.1 1.62 3.65 4.86 5.68 3.24 2.02 7.8 2.02m68.39 11.75h-15.7l-16.62-55.51h16.72Zm5.67 0h-16.31V75.15h16.31Zm4.36 0h-14.69l13.47-55.51h15.61Zm42.85 0h-16.21V33.11h16.21Zm0-43.56h-23.6V33.11h23.6Zm-9.92-17.42q-4.56 0-6.74-2.38t-2.18-6.03q0-3.75 2.18-6.13t6.74-2.38q4.55 0 6.73 2.38t2.18 6.13q0 3.65-2.18 6.03t-6.73 2.38m50.35 62.91q-7.1 0-12.52-2.43t-9.01-6.54q-3.6-4.1-5.47-9.21-1.88-5.12-1.88-10.49v-2.03q0-5.57 1.88-10.68 1.87-5.12 5.42-9.17 3.54-4.06 8.86-6.44t12.11-2.38q8.91 0 15.04 4.01 6.13 4 9.37 10.43t3.24 14.03v5.47h-49.13V55.9h39.31l-5.27 4.26q0-4.97-1.42-8.51-1.42-3.55-4.2-5.42-2.79-1.88-6.94-1.88-4.26 0-7.2 1.93-2.93 1.92-4.45 5.62t-1.52 9.07q0 4.96 1.42 8.66 1.41 3.7 4.45 5.72 3.04 2.03 7.91 2.03 4.45 0 7.29-1.72t3.85-4.26h14.89q-1.21 5.57-4.76 9.93t-8.92 6.79q-5.36 2.43-12.35 2.43m103.33-1.94h-27.05l-22.49-73.95h17.12l17.83 62.41-3.85-1.93h10.33l-4.05 1.93 16.52-62.41h16.61Zm56.12 1.94q-7.09 0-12.51-2.43t-9.01-6.54q-3.6-4.1-5.47-9.21-1.88-5.12-1.88-10.49v-2.03q0-5.57 1.88-10.68 1.87-5.12 5.42-9.17 3.54-4.06 8.86-6.44t12.11-2.38q8.91 0 15.04 4.01 6.13 4 9.37 10.43t3.24 14.03v5.47h-49.13V55.9h39.31l-5.27 4.26q0-4.97-1.42-8.51-1.42-3.55-4.2-5.42-2.79-1.88-6.94-1.88-4.26 0-7.2 1.93-2.94 1.92-4.45 5.62-1.52 3.7-1.52 9.07 0 4.96 1.41 8.66 1.42 3.7 4.46 5.72 3.04 2.03 7.9 2.03 4.46 0 7.3-1.72 2.83-1.72 3.85-4.26h14.89q-1.22 5.57-4.76 9.93-3.55 4.36-8.92 6.79t-12.36 2.43m54-1.93h-16.21V33.11h12.87v23.81h-.31q0-11.76 5.02-18.14 5.01-6.38 14.54-6.38h2.12v13.98h-4.05q-6.69 0-10.33 3.6-3.65 3.59-3.65 10.38Zm47.5 1.73q-11.85 0-18.54-4.87-6.68-4.86-7.09-13.67h14.39q.4 2.63 3.19 4.71t8.36 2.08q4.25 0 7.04-1.47 2.78-1.47 2.78-4.21 0-2.43-2.12-3.9-2.13-1.47-7.6-2.07l-4.36-.41q-10.03-1.01-15.04-5.57-5.02-4.56-5.02-11.65 0-5.88 2.94-9.83t8.16-5.98q5.21-2.02 11.9-2.02 10.74 0 17.32 4.71 6.59 4.71 6.89 13.62h-14.38q-.41-2.73-2.84-4.61-2.43-1.87-7.19-1.87-3.75 0-5.98 1.42t-2.23 3.85q0 2.33 1.93 3.54 1.92 1.22 6.28 1.73l4.35.4q10.24 1.12 15.91 5.67 5.67 4.56 5.67 12.26 0 5.57-3.04 9.68-3.04 4.1-8.61 6.28t-13.07 2.18m60.69.2q-7.09 0-12.51-2.43t-9.02-6.54q-3.6-4.1-5.47-9.21-1.88-5.12-1.88-10.49v-2.03q0-5.57 1.88-10.68 1.87-5.12 5.42-9.17 3.54-4.06 8.86-6.44t12.11-2.38q8.91 0 15.04 4.01 6.13 4 9.37 10.43 3.25 6.43 3.25 14.03v5.47h-49.14V55.9h39.31l-5.27 4.26q0-4.97-1.42-8.51-1.42-3.55-4.2-5.42-2.79-1.88-6.94-1.88-4.26 0-7.19 1.93-2.94 1.92-4.46 5.62t-1.52 9.07q0 4.96 1.42 8.66t4.46 5.72q3.03 2.03 7.9 2.03 4.45 0 7.29-1.72t3.85-4.26h14.89q-1.21 5.57-4.76 9.93-3.54 4.36-8.91 6.79t-12.36 2.43" paint-order="stroke"/><path fill="#5771ff" d="M674.596 7.84c-27.023 0-48.96 21.95-48.96 48.96-.002 26.813 21.564 48.64 48.375 48.96h48.39c1.55 0 1.55-2.203 0-2.203h-33.375c20.544-6.29 34.562-25.271 34.53-46.757 0-27.01-21.95-48.96-48.96-48.96m0 2.203a46.7 46.7 0 0 1 46.73 46.757 46.7 46.7 0 0 1-46.73 46.757 46.7 46.7 0 0 1-46.77-46.757 46.7 46.7 0 0 1 46.77-46.757m0 4.978A41.75 41.75 0 0 0 632.79 56.8a41.75 41.75 0 0 0 41.806 41.78 41.75 41.75 0 0 0 41.766-41.78 41.75 41.75 0 0 0-41.766-41.78m0 2.204c21.857 0 39.576 17.719 39.576 39.576s-17.719 39.576-39.576 39.576c-21.896 0-39.576-17.707-39.576-39.576s17.68-39.576 39.576-39.576m0 3.835c-6.76 0-12.24 5.48-12.24 12.24s5.48 12.24 12.24 12.24 12.24-5.48 12.24-12.24-5.48-12.24-12.24-12.24m0 2.122a10.118 10.118 0 1 1 0 20.237c-5.588 0-10.118-4.53-10.118-10.119s4.53-10.118 10.118-10.118M651.068 44.56c-6.76 0-12.24 5.48-12.24 12.24s5.48 12.24 12.24 12.24 12.24-5.48 12.24-12.24-5.48-12.24-12.24-12.24m47.002 0c-6.76 0-12.24 5.48-12.24 12.24s5.48 12.24 12.24 12.24 12.24-5.48 12.24-12.24-5.48-12.24-12.24-12.24m-47.002 2.122c5.588 0 10.118 4.53 10.118 10.118s-4.53 10.118-10.118 10.118-10.118-4.53-10.118-10.118 4.53-10.118 10.118-10.118m47.002 0A10.064 10.064 0 0 1 708.202 56.8a10.118 10.118 0 1 1-10.119-10.118M674.596 68.06c-6.76 0-12.24 5.48-12.24 12.24s5.48 12.24 12.24 12.24 12.24-5.48 12.24-12.24-5.48-12.24-12.24-12.24m0 2.121a10.118 10.118 0 1 1 0 20.237c-5.588 0-10.118-4.53-10.118-10.118s4.53-10.119 10.118-10.119"/></g><path fill="transparent" stroke="transparent" d="M609.5 0h781v115h-781z"/></g></svg>
