<svg xmlns="http://www.w3.org/2000/svg" xml:space="preserve" width="2000" height="701" data-id="lg_3Pqd0h6YZSwBQwR7Ih" data-version="1" viewBox="0 0 2000 701"><g data-padding="20"><path fill="#5771ff" d="M999.976 10.214c-187.819 0-340.286 152.561-340.286 340.286-.014 186.359 149.876 338.06 336.222 340.286h336.316c10.776 0 10.776-15.313 0-15.313h-231.962c142.79-43.717 240.216-175.642 239.996-324.973 0-187.725-152.561-340.286-340.286-340.286m0 15.313A324.597 324.597 0 0 1 1324.761 350.5a324.597 324.597 0 0 1-324.785 324.973A324.597 324.597 0 0 1 674.908 350.5 324.597 324.597 0 0 1 999.976 25.527m0 34.595A290.19 290.19 0 0 0 709.41 350.5a290.19 290.19 0 0 0 290.566 290.378A290.19 290.19 0 0 0 1290.26 350.5 290.19 290.19 0 0 0 999.976 60.122m0 15.313c151.915 0 275.065 123.15 275.065 275.065s-123.15 275.065-275.065 275.065c-152.183 0-275.065-123.07-275.065-275.065S847.793 75.435 999.976 75.435m0 26.656c-46.984 0-85.071 38.088-85.071 85.072s38.087 85.072 85.071 85.072 85.072-38.089 85.072-85.072-38.088-85.072-85.072-85.072m0 14.745a70.326 70.326 0 1 1 0 140.653c-38.84 0-70.325-31.486-70.325-70.326s31.485-70.327 70.325-70.327M836.45 265.428c-46.984 0-85.072 38.088-85.072 85.072s38.088 85.072 85.072 85.072 85.071-38.088 85.071-85.072-38.087-85.072-85.071-85.072m326.675 0c-46.984 0-85.072 38.088-85.072 85.072s38.088 85.072 85.072 85.072 85.071-38.088 85.071-85.072-38.088-85.072-85.071-85.072m-326.676 14.746c38.84 0 70.325 31.486 70.325 70.326s-31.485 70.326-70.325 70.326-70.326-31.486-70.326-70.326 31.485-70.326 70.326-70.326m326.675 0a69.946 69.946 0 0 1 70.42 70.326c0 28.445-17.133 54.088-43.412 64.972-26.279 10.886-56.527 4.869-76.64-15.244-20.114-20.113-26.13-50.361-15.246-76.64 10.885-26.28 36.53-43.415 64.973-43.415M999.976 428.766c-46.984 0-85.071 38.089-85.071 85.072s38.087 85.072 85.071 85.072 85.072-38.088 85.072-85.072-38.088-85.072-85.072-85.072m0 14.747a70.326 70.326 0 1 1 0 140.652c-38.84 0-70.325-31.487-70.325-70.327s31.485-70.325 70.325-70.325"/><path fill="transparent" stroke="transparent" d="M649.5 0h701v701h-701z"/></g></svg>